<svg width="64" height="49" viewBox="0 0 64 49" fill="none" xmlns="http://www.w3.org/2000/svg">
<circle cx="21.5" cy="27.5" r="21.5" fill="#FF9900"/>
<g clip-path="url(#clip0_406480_3599)">
<path fill-rule="evenodd" clip-rule="evenodd" d="M31.889 5.58637C31.9862 5.41703 32.2017 5.35891 32.3703 5.45657L52.9875 17.3973C53.1561 17.4949 53.214 17.7114 53.1168 17.8807C53.0195 18.0501 52.804 18.1082 52.6354 18.0105L32.0182 6.06982C31.8496 5.97216 31.7917 5.75572 31.889 5.58637Z" fill="black"/>
<path fill-rule="evenodd" clip-rule="evenodd" d="M39.9738 0.666326C40.7428 0.222448 41.615 -0.0112305 42.5028 -0.0112305C43.3907 -0.0112305 44.2629 0.222448 45.0318 0.666326C45.0321 0.666467 45.0323 0.666608 45.0326 0.666749L61.4759 10.0648C62.2443 10.5086 62.8825 11.1466 63.3265 11.9149C63.7705 12.6832 64.0048 13.5548 64.0057 14.4422V33.2391C64.0048 34.1265 63.7705 34.9981 63.3265 35.7664C62.8825 36.5347 62.2443 37.1727 61.4759 37.6165L61.4745 37.6173L45.0326 47.0146C45.0324 47.0146 45.0323 47.0147 45.0322 47.0148C44.2631 47.4588 43.3908 47.6925 42.5028 47.6925C41.6149 47.6925 40.7425 47.4588 39.9735 47.0148C39.9734 47.0147 39.9732 47.0146 39.9731 47.0146L23.5311 37.6173L23.5297 37.6165C22.7614 37.1727 22.1232 36.5347 21.6791 35.7664C21.2351 34.9981 21.0009 34.1265 21 33.2391V14.4422C21.0009 13.5548 21.2351 12.6832 21.6791 11.9149C22.1232 11.1466 22.7614 10.5086 23.5297 10.0648L23.5311 10.064L39.9731 0.666749C39.9733 0.666608 39.9736 0.666467 39.9738 0.666326ZM42.5028 0.7117C41.7416 0.7117 40.9937 0.912123 40.3345 1.29283L40.3331 1.29363L23.8911 10.6909C23.8909 10.6911 23.8906 10.6912 23.8904 10.6913C23.2321 11.0717 22.6853 11.6184 22.3049 12.2767C21.9243 12.9352 21.7236 13.6822 21.7228 14.4427V33.2386C21.7236 33.9991 21.9243 34.7461 22.3049 35.4046C22.6853 36.0629 23.2321 36.6096 23.8903 36.9899C23.8906 36.9901 23.8909 36.9902 23.8911 36.9904L40.3345 46.3885C40.9937 46.7692 41.7416 46.9696 42.5028 46.9696C43.2641 46.9696 44.0119 46.7692 44.6712 46.3885L44.6726 46.3877L61.1145 36.9904C61.1148 36.9902 61.1151 36.9901 61.1154 36.9899C61.7736 36.6096 62.3203 36.0629 62.7008 35.4046C63.0813 34.7461 63.2821 33.999 63.2829 33.2384V14.4429C63.2821 13.6823 63.0813 12.9352 62.7008 12.2767C62.3203 11.6184 61.7735 11.0717 61.1153 10.6913C61.115 10.6912 61.1148 10.6911 61.1145 10.6909L44.6726 1.29363L44.6712 1.29283C44.0119 0.912123 43.2641 0.7117 42.5028 0.7117Z" fill="black"/>
<path fill-rule="evenodd" clip-rule="evenodd" d="M21.7707 12.0908C21.8693 11.9221 22.0875 11.8645 22.2581 11.962L42.322 23.4414L62.386 11.962C62.5565 11.8645 62.7747 11.9221 62.8734 12.0908C62.972 12.2594 62.9137 12.4753 62.7432 12.5728L42.5006 24.1545C42.3901 24.2177 42.2539 24.2177 42.1434 24.1545L21.9008 12.5728C21.7303 12.4753 21.672 12.2594 21.7707 12.0908Z" fill="black"/>
<path fill-rule="evenodd" clip-rule="evenodd" d="M42.3218 23.479C42.5214 23.479 42.6832 23.6372 42.6832 23.8323V46.9776C42.6832 47.1727 42.5214 47.3309 42.3218 47.3309C42.1222 47.3309 41.9604 47.1727 41.9604 46.9776V23.8323C41.9604 23.6372 42.1222 23.479 42.3218 23.479Z" fill="black"/>
</g>
<defs>
<clipPath id="clip0_406480_3599">
<rect width="43" height="48" fill="white" transform="translate(21)"/>
</clipPath>
</defs>
</svg>
